<svg xmlns="http://www.w3.org/2000/svg" viewBox="0 0 675.23 675.16"><defs><style>.cls-1{fill:#e74841;}.cls-2{fill:#f68b4c;fill-rule:evenodd;}</style></defs><g id="Layer_2" data-name="Layer 2"><g id="Layer_1-2" data-name="Layer 1"><path class="cls-1" d="M143.45,337.54c0-107.23,86.93-194.17,194.17-194.17s194.17,86.94,194.17,194.17S444.86,531.72,337.62,531.72,143.45,444.78,143.45,337.54Z"/><path class="cls-2" d="M346.33,4.43a10.79,10.79,0,0,0-15.07-2.36,11,11,0,0,0-2.36,2.36L289.64,58.58a10.8,10.8,0,0,1-14.42,2.9l-57-35A10.79,10.79,0,0,0,203.34,30a11.09,11.09,0,0,0-1.3,3.14L186.51,98.2a10.78,10.78,0,0,1-12.17,8.19l-66.1-10.57a10.79,10.79,0,0,0-12.34,9,10.58,10.58,0,0,0,0,3.37l10.52,66.11a10.78,10.78,0,0,1-8.15,12.17L33.16,202a10.79,10.79,0,0,0-7.95,13,11.09,11.09,0,0,0,1.3,3.12l35,57a10.79,10.79,0,0,1-2.89,14.37L4.46,328.79a10.78,10.78,0,0,0,0,17.47l54.2,39.27a10.79,10.79,0,0,1,2.89,14.41l-35,57a10.79,10.79,0,0,0,6.65,16.14l65.15,15.53a10.79,10.79,0,0,1,8.11,12.17L95.9,566.93a10.78,10.78,0,0,0,9,12.34,11.26,11.26,0,0,0,3.38,0l66.1-10.53a10.79,10.79,0,0,1,12.17,8.15L202,642a10.79,10.79,0,0,0,13,8,10.54,10.54,0,0,0,3.14-1.3l57-35a10.81,10.81,0,0,1,14.37,2.89l39.27,54.2a10.77,10.77,0,0,0,15.06,2.41,10.6,10.6,0,0,0,2.41-2.41l39.27-54.2A10.79,10.79,0,0,1,400,613.61l57,35a10.79,10.79,0,0,0,14.84-3.55,10.54,10.54,0,0,0,1.3-3.14l15.54-65.07a10.78,10.78,0,0,1,12.16-8.2L567,579.27a10.79,10.79,0,0,0,12.34-9,10.58,10.58,0,0,0,0-3.37l-10.53-66.11A10.8,10.8,0,0,1,577,488.65L642,473.12a10.78,10.78,0,0,0,8-13,10.54,10.54,0,0,0-1.3-3.14l-35-57a10.79,10.79,0,0,1,2.89-14.37l54.19-39.27a10.77,10.77,0,0,0,2.41-15.06,10.6,10.6,0,0,0-2.41-2.41l-54.19-39.27a10.77,10.77,0,0,1-2.89-14.41l35-57A10.78,10.78,0,0,0,642,202L577,186.44a10.79,10.79,0,0,1-8.2-12.17l10.57-66.11a10.79,10.79,0,0,0-9-12.34,11.2,11.2,0,0,0-3.37,0l-66.11,10.53a10.78,10.78,0,0,1-12.16-8.15L473.19,33.13a10.8,10.8,0,0,0-16.14-6.69l-57,35a10.8,10.8,0,0,1-14.37-2.9L346.38,4.43Zm-8.71,95.79c-131.07,0-237.32,106.26-237.32,237.32S206.55,574.87,337.62,574.87,574.94,468.61,574.94,337.54,468.69,100.22,337.62,100.22Z"/></g></g></svg>