<svg xmlns="http://www.w3.org/2000/svg" viewBox="0 0 671.43 671.33"><defs><style>.cls-1{fill:#e74841;}.cls-2{fill:#f68b4c;fill-rule:evenodd;}</style></defs><g id="Layer_2" data-name="Layer 2"><g id="Layer_1-2" data-name="Layer 1"><path class="cls-1" d="M141.54,335.62c0-107.24,86.94-194.17,194.17-194.17s194.18,86.93,194.18,194.17S443,529.79,335.71,529.79,141.54,442.86,141.54,335.62Z"/><path class="cls-2" d="M329.36.15A10.57,10.57,0,0,0,327,2.51L287.73,56.66a10.78,10.78,0,0,1-14.41,2.89S204.56,23,201.44,28.06a10.54,10.54,0,0,0-1.3,3.14L184.6,96.27a10.78,10.78,0,0,1-12.16,8.2S94.92,97,94,102.87a10.58,10.58,0,0,0,0,3.37l10.53,66.1a10.79,10.79,0,0,1-8.16,12.17s-74.45,22.77-73,28.56a10.63,10.63,0,0,0,1.3,3.11l35,57.05a10.79,10.79,0,0,1-2.89,14.37S-3.35,337.1.15,341.93a10.8,10.8,0,0,0,2.41,2.41L56.75,383.6A10.78,10.78,0,0,1,59.64,398s-36.57,68.77-31.5,71.89a10.91,10.91,0,0,0,3.11,1.3l65.16,15.53a10.78,10.78,0,0,1,8.11,12.17s-7.44,77.51-1.56,78.44a10.58,10.58,0,0,0,3.37,0l66.11-10.53A10.78,10.78,0,0,1,184.6,575s22.74,74.44,28.54,73.06a11.34,11.34,0,0,0,3.14-1.3l57-35a10.79,10.79,0,0,1,14.37,2.89s49.5,60.1,54.33,56.61a11,11,0,0,0,2.41-2.41l39.27-54.2a10.78,10.78,0,0,1,14.41-2.89s68.76,36.57,71.88,31.49a11.09,11.09,0,0,0,1.3-3.14L486.82,575a10.79,10.79,0,0,1,12.17-8.2s77.51,7.49,78.45,1.6a11.2,11.2,0,0,0,0-3.37l-10.53-66.1a10.77,10.77,0,0,1,8.15-12.17S649.5,464,648.12,458.2a10.54,10.54,0,0,0-1.3-3.14l-35-57.05a10.77,10.77,0,0,1,2.89-14.36s60.1-49.51,56.61-54.33a10.85,10.85,0,0,0-2.41-2.42l-54.2-39.26a10.79,10.79,0,0,1-2.89-14.41s36.57-68.77,31.49-71.88a10.54,10.54,0,0,0-3.14-1.3l-65.07-15.54a10.79,10.79,0,0,1-8.2-12.17s7.49-77.51,1.61-78.44a10.65,10.65,0,0,0-3.38,0L499,104.43a10.8,10.8,0,0,1-12.17-8.16s-22.73-74.44-28.53-73.06a11.09,11.09,0,0,0-3.14,1.3l-57,35a10.79,10.79,0,0,1-14.37-2.89S334.17-3.36,329.36.15Zm6.35,98.15C204.64,98.3,98.39,204.55,98.39,335.62S204.64,572.94,335.71,572.94,573,466.69,573,335.62,466.78,98.3,335.71,98.3Z"/></g></g></svg>